:SAMPLES-PER-SECOND 30
:FULLY-SPECIFIED
:DEGREES
127
root  0.6993111194 39.24244558 0.0376644449 -12.07098389 -71.49900055 5.025024414
lowerback  12.48799992 1.537029982 -3.077879906
upperback  5.323959827 1.48684001 -0.5149779916
thorax  -1.486979961 0.6302729845 0.9983739853
lowerneck  -0.9585919976 5.499780178 -2.366620064
upperneck  20.25399971 6.954820156 1.866469979
head  6.137519836 3.16208005 1.341770053
lclavicle  0 -9.442270133e-015 7.951389973e-016
lhumerus  1.531149983 -9.744890213 81.25289917
lradius  2.243883225e-031 -2.726505476e-031 129.4539948
lwrist  -7.062250077e-031 -1.765562519e-031 9.086770058
lhand  -1.496451383e-031 -27.76390076 20.11240005
lfingers  90 7.125020027 -90
lthumb  89.89689403 5.08795885 91.16245106
rclavicle  0 -9.442270133e-015 7.951389973e-016
rhumerus  23.48110008 31.63220024 -74.64520264
rradius  -1.98820042e-031 2.918202036e-031 124.2669983
rwrist  7.062250077e-031 -0 -5.796500206
rhand  -7.920061211e-032 -33.2840004 9.303460121
rfingers  -90 -7.125020027 -90
rthumb  -92.93752616 -24.25625642 -97.11982154
rfemur  -32.20830154 12.66940022 2.784770012
rtibia  -0 0 60.03540039
rfoot  -0 -10.20069981 -8.767519951
rtoes  5.373923086 19.29304026 -105.8922705
lfemur  -13.77509975 -2.794620037 -7.673480034
ltibia  -0 0 63.56359863
lfoot  5.549504085e-032 -6.167600155 -1.073850036
ltoes  -4.250644065 -19.5611806 -102.515957
128
root  0.8196155856 39.06733295 0.05335400072 -13.52801514 -72.20600128 6.331970215
lowerback  12.43830013 1.623299956 -3.01135993
upperback  5.405590057 1.598829985 -0.7747939825
thorax  -1.37045002 0.6845219731 0.6779569983
lowerneck  -1.303500056 5.356500149 -1.361109972
upperneck  20.0279007 6.731969833 1.72183001
head  6.170770168 3.12473011 1.128710032
lclavicle  0 -9.442270133e-015 7.951389973e-016
lhumerus  1.936830044 -10.33520031 80.94619751
lradius  2.25201076e-031 -2.719796238e-031 129.625
lwrist  -1.412450015e-030 -3.531125038e-031 8.347279549
lhand  -1.496451383e-031 -27.76390076 20.11240005
lfingers  90 7.125020027 -90
lthumb  89.89689403 5.08795885 91.16245106
rclavicle  0 -9.442270133e-015 7.951389973e-016
rhumerus  23.8260994 30.77890015 -74.45529938
rradius  -1.999238575e-031 2.910650985e-031 124.4840012
rwrist  7.062250077e-031 -0 -6.43088007
rhand  -7.920061211e-032 -33.2840004 9.303460121
rfingers  -90 -7.125020027 -90
rthumb  -92.93752616 -24.25625642 -97.11982154
rfemur  -32.05730057 12.71940041 2.404609919
rtibia  -0 0 63.70959854
rfoot  -0 -9.578780174 -7.866839886
rtoes  5.373923086 19.29304026 -105.8922705
lfemur  -14.18000031 -3.787230015 -7.771440029
ltibia  -0 0 62.46849823
lfoot  4.454109475e-032 -7.703969955 -0.9248700142
ltoes  -4.250644065 -19.5611806 -102.515957
129
root  0.9325088478 38.87844536 0.07686755789 -14.91802979 -72.84500122 7.559997559
lowerback  12.30589962 1.615309954 -2.92147994
upperback  5.498730183 1.59600997 -0.9460669756
thorax  -1.194669962 0.6810070276 0.4543370008
lowerneck  -1.537719965 5.259980202 -0.821608007
upperneck  19.67580032 6.577119827 1.716099977
head  6.120729923 3.097140074 1.031720042
lclavicle  0 -9.442270133e-015 7.951389973e-016
lhumerus  2.074569941 -10.83110046 80.91809845
lradius  2.267496296e-031 -2.706899441e-031 129.9519958
lwrist  -7.062250077e-031 -1.765562519e-031 7.799240112
lhand  -1.496451383e-031 -27.76390076 20.11240005
lfingers  90 7.125020027 -90
lthumb  89.89689403 5.08795885 91.16245106
rclavicle  0 -9.442270133e-015 7.951389973e-016
rhumerus  24.40279961 30.06970024 -74.20189667
rradius  -2.009335657e-031 2.903689765e-031 124.6829987
rwrist  7.062250077e-031 -0 -7.287439823
rhand  -7.920061211e-032 -33.2840004 9.303460121
rfingers  -90 -7.125020027 -90
rthumb  -92.93752616 -24.25625642 -97.11982154
rfemur  -31.73360062 12.73190022 2.030970097
rtibia  -0 0 67.30290222
rfoot  -0 -8.789999962 -7.374790192
rtoes  5.373923086 19.29304026 -105.8922705
lfemur  -14.5170002 -4.840539932 -7.810649872
ltibia  -0 0 61.13700104
lfoot  5.029920054e-032 -9.169449806 -0.6621069908
ltoes  -4.250644065 -19.5611806 -102.515957
130
root  1.040704419 38.67022297 0.1043731068 -16.10601807 -73.52100372 8.565002441
lowerback  12.13799953 1.582720041 -2.705729961
upperback  5.578299999 1.578089952 -1.073250055
thorax  -1.011719942 0.6725410223 0.208592996
lowerneck  -1.75177002 5.187799931 -0.4314439893
upperneck  19.33189964 6.460790157 1.731230021
head  6.063029766 3.077409983 0.9670040011
lclavicle  0 -9.442270133e-015 7.951389973e-016
lhumerus  2.244750023 -11.15839958 80.88780212
lradius  2.280791564e-031 -2.695706564e-031 130.2339935
lwrist  -7.062250077e-031 -3.531125038e-031 7.649600029
lhand  -1.496451383e-031 -27.76390076 20.11240005
lfingers  90 7.125020027 -90
lthumb  89.89689403 5.08795885 91.16245106
rclavicle  0 -9.442270133e-015 7.951389973e-016
rhumerus  25.00869942 29.62470055 -74.20310211
rradius  -2.011412998e-031 2.902251159e-031 124.723999
rwrist  7.062250077e-031 -0 -7.879759789
rhand  -7.920061211e-032 -33.2840004 9.303460121
rfingers  -90 -7.125020027 -90
rthumb  -92.93752616 -24.25625642 -97.11982154
rfemur  -31.27000046 12.78670025 1.733340025
rtibia  -0 0 70.73000336
rfoot  -0 -8.280949593 -6.871520042
rtoes  5.373923086 19.29304026 -105.8922705
lfemur  -14.76159954 -5.91534996 -7.72010994
ltibia  -0 0 59.64690018
lfoot  5.054972209e-032 -10.78730011 -0.6882629991
ltoes  -4.250644065 -19.5611806 -102.515957
131
root  1.144344412 38.44199894 0.1316939987 -17.29797363 -74.20500183 9.594970703
lowerback  11.90600014 1.517130017 -2.49364996
upperback  5.667290211 1.519430041 -1.160419941
thorax  -0.784931004 0.6436340213 0.01308029983
lowerneck  -2.007430077 5.187789917 -0.1168389991
upperneck  18.9897995 6.455629826 1.70709002
head  6.010839939 3.102809906 0.9097160101
lclavicle  0 -9.442270133e-015 7.951389973e-016
lhumerus  2.423110008 -11.21399975 80.84719849
lradius  2.298058953e-031 -2.681001508e-031 130.602005
lwrist  -7.062250077e-031 -1.765562519e-031 8.017999649
lhand  -1.496451383e-031 -27.76390076 20.11240005
lfingers  90 7.125020027 -90
lthumb  89.89689403 5.08795885 91.16245106
rclavicle  0 -9.442270133e-015 7.951389973e-016
rhumerus  25.62849998 29.30500031 -74.24440002
rradius  -2.016981241e-031 2.898384155e-031 124.8339996
rwrist  7.062250077e-031 -1.765562519e-031 -8.500559807
rhand  -7.920061211e-032 -33.2840004 9.303460121
rfingers  -90 -7.125020027 -90
rthumb  -92.93752616 -24.25625642 -97.11982154
rfemur  -30.65839958 12.96940041 1.437630057
rtibia  -0 0 73.90779877
rfoot  -4.45872332e-032 -8.130519867 -5.731180191
rtoes  5.373923086 19.29304026 -105.8922705
lfemur  -14.95779991 -6.851109982 -7.601290226
ltibia  -0 0 58.18230057
lfoot  5.656341414e-032 -12.72640038 -0.8716480136
ltoes  -4.250644065 -19.5611806 -102.515957
132
root  1.244122212 38.21288882 0.1593031165 -18.14801025 -74.81999969 10.34197998
lowerback  11.68220043 1.393970013 -2.261369944
upperback  5.698890209 1.389379978 -1.154760003
thorax  -0.6238260269 0.5812289715 -0.09022399783
lowerneck  -2.308049917 5.242129803 0.07676039636
upperneck  18.74979973 6.54226017 1.61748004
head  5.996210098 3.157749891 0.860131979
lclavicle  0 -9.442270133e-015 7.951389973e-016
lhumerus  2.484260082 -11.29430008 80.88950348
lradius  2.312158332e-031 -2.668851417e-031 130.904007
lwrist  -1.412450015e-030 -1.765562519e-031 7.483119965
lhand  -1.496451383e-031 -27.76390076 20.11240005
lfingers  90 7.125020027 -90
lthumb  89.89689403 5.08795885 91.16245106
rclavicle  0 -9.442270133e-015 7.951389973e-016
rhumerus  26.23469925 29.00819969 -74.16220093
rradius  -2.025117826e-031 2.892704933e-031 124.9950027
rwrist  0 -1.765562519e-031 -9.104020119
rhand  -7.920061211e-032 -33.2840004 9.303460121
rfingers  -90 -7.125020027 -90
rthumb  -92.93752616 -24.25625642 -97.11982154
rfemur  -29.85840034 13.17910004 1.247720003
rtibia  -0 0 76.70770264
rfoot  -4.449426588e-032 -7.244579792 -6.289720058
rtoes  5.373923086 19.29304026 -105.8922705
lfemur  -15.26420021 -7.649240017 -7.357659817
ltibia  -0 0 57.01399994
lfoot  5.12893946e-032 -14.49670029 -0.65545398
ltoes  -4.250644065 -19.5611806 -102.515957
133
root  1.341153318 37.98577917 0.1881262214 -18.66601563 -75.38800049 10.76898193
lowerback  11.52159977 1.275679946 -1.946310043
upperback  5.662330151 1.274719954 -1.052729964
thorax  -0.569544971 0.5297200084 -0.1448629946
lowerneck  -2.509789944 5.299809933 -0.04039239883
upperneck  18.5156002 6.640289783 1.631360054
head  5.951360226 3.204030037 0.8908759952
lclavicle  0 -9.442270133e-015 7.951389973e-016
lhumerus  2.388859987 -11.66320038 81.09899902
lradius  2.316998338e-031 -2.664650585e-031 131.0079956
lwrist  0 -0 5.58314991
lhand  -1.496451383e-031 -27.76390076 20.11240005
lfingers  90 7.125020027 -90
lthumb  89.89689403 5.08795885 91.16245106
rclavicle  0 -9.442270133e-015 7.951389973e-016
rhumerus  26.79290009 28.82559967 -74.07350159
rradius  -2.034346576e-031 2.886222106e-031 125.1780014
rwrist  7.062250077e-031 -1.765562519e-031 -9.660559654
rhand  -7.920061211e-032 -33.2840004 9.303460121
rfingers  -90 -7.125020027 -90
rthumb  -92.93752616 -24.25625642 -97.11982154
rfemur  -28.83399963 13.34869957 1.194390059
rtibia  -0 0 79.0318985
rfoot  -8.884412161e-032 -6.470839977 -5.80009985
rtoes  5.373923086 19.29304026 -105.8922705
lfemur  -15.67860031 -8.460980415 -6.934989929
ltibia  -0 0 56.36259842
lfoot  4.584666499e-032 -15.6868 -0.3637270033
ltoes  -4.250644065 -19.5611806 -102.515957
134
root  1.438977775 37.7360006 0.2228777709 -19.14398193 -75.88400269 11.19702148
lowerback  11.42479992 1.165210009 -1.667279959
upperback  5.568480015 1.167410016 -0.8480010033
thorax  -0.6129109859 0.4818530083 -0.07602919638
lowerneck  -2.691050053 5.352379799 -0.3922150135
upperneck  18.2628994 6.746809959 1.684820056
head  5.886839867 3.242599964 0.9711949825
lclavicle  0 -9.442270133e-015 7.951389973e-016
lhumerus  2.227969885 -11.89169979 81.53869629
lradius  2.331057889e-031 -2.652359922e-031 131.3110046
lwrist  -1.059337512e-030 -1.765562519e-031 4.502630234
lhand  -1.496451383e-031 -27.76390076 20.11240005
lfingers  90 7.125020027 -90
lthumb  89.89689403 5.08795885 91.16245106
rclavicle  0 -9.442270133e-015 7.951389973e-016
rhumerus  27.32509995 28.76230049 -73.8483963
rradius  -2.046669343e-031 2.877496939e-031 125.4229965
rwrist  7.062250077e-031 -1.765562519e-031 -10.28129959
rhand  -7.920061211e-032 -33.2840004 9.303460121
rfingers  -90 -7.125020027 -90
rthumb  -92.93752616 -24.25625642 -97.11982154
rfemur  -27.68250084 13.52509975 1.11263001
rtibia  -0 0 80.83930206
rfoot  -4.435809483e-032 -5.696179867 -4.579040051
rtoes  5.373923086 19.29304026 -105.8922705
lfemur  -16.24410057 -9.272279739 -6.467339993
ltibia  -0 0 56.3042984
lfoot  4.602321684e-032 -16.45129967 -0.388583988
ltoes  -4.250644065 -19.5611806 -102.515957
